<svg width="28" height="24" viewBox="0 0 28 24" fill="none" xmlns="http://www.w3.org/2000/svg">
<path d="M14 7H14.5C14.5 5.18428 15.2437 3.59459 16.4162 2.42093C17.6289 1.24205 19.2216 0.5 21 0.5C22.8157 0.5 24.4054 1.24367 25.5791 2.41617C26.7579 3.62894 27.5 5.22157 27.5 7C27.5 8.81695 26.7553 10.4076 25.5814 11.5814L14 23.1629L2.42101 11.5839C1.24208 10.3711 0.5 8.77847 0.5 7C0.5 5.1843 1.24365 3.59462 2.41613 2.42097C3.62891 1.24207 5.22155 0.5 7 0.5C8.81571 0.5 10.4054 1.24365 11.579 2.41614C12.7579 3.62892 13.5 5.22156 13.5 7H14Z" fill="#F341F3" stroke="#F341F3"/>
</svg>
