<svg width="332" height="47" viewBox="0 0 332 47" fill="none" xmlns="http://www.w3.org/2000/svg">
<path d="M0.0519401 28.9692H19.1168C20.455 29.0435 21.7874 28.7435 22.9645 28.1027C23.7658 27.6305 24.3667 26.8818 24.6543 25.9974C24.933 25.0084 25.0645 23.9837 25.0443 22.9563V0.291016H34.2994V26.0755C34.414 28.7949 33.5979 31.4721 31.9857 33.6653C30.4432 35.6407 27.8694 36.6283 24.2644 36.6283H0L0.0519401 28.9692Z" fill="white"/>
<path d="M49.525 35.4416C46.418 34.2985 43.6097 32.4682 41.3098 30.0873C39.282 27.8866 38.2681 25.6252 38.2681 23.3032C38.3072 22.0653 38.5941 20.8478 39.1121 19.7227C39.6301 18.5976 40.3686 17.588 41.2838 16.7533C43.6095 14.5152 46.408 12.8273 49.473 11.8146C53.0901 10.538 56.9029 9.90465 60.7386 9.94318C64.5722 9.90355 68.3837 10.528 72.0042 11.7887C75.0559 12.7882 77.8451 14.4578 80.1674 16.6752C81.0834 17.5038 81.8226 18.5088 82.3408 19.6298C82.859 20.7509 83.1455 21.9649 83.1831 23.1993C83.1891 24.1413 83.102 25.0816 82.9231 26.0065L48.7624 26.0585C49.7632 27.9426 51.4613 29.3604 53.4939 30.0092C55.8036 30.8795 58.253 31.32 60.7212 31.3088C62.7663 31.3088 64.4216 31.2569 65.6868 31.1529C67.0583 31.0163 68.41 30.7257 69.7164 30.2865C71.2967 29.7591 72.8003 29.0249 74.188 28.1032L80.0634 32.4352C78.4689 33.9254 75.7999 35.1384 72.0562 36.0741C68.3498 37.0052 64.5428 37.4767 60.7212 37.4778C56.8936 37.5171 53.0936 36.826 49.525 35.4416ZM72.5328 20.496C71.2926 18.9481 69.6034 17.8221 67.6973 17.273C65.4657 16.5104 63.1229 16.1238 60.7646 16.1293C58.2618 16.0979 55.7671 16.4218 53.3552 17.0911C52.4055 17.3032 51.5104 17.711 50.727 18.2883C49.9437 18.8656 49.2893 19.5999 48.8057 20.4442L72.5328 20.496Z" fill="white"/>
<path d="M88.3387 0.325195H97.5418V36.7145H88.3387V0.325195Z" fill="white"/>
<path d="M113.791 35.4416C110.684 34.2985 107.875 32.4682 105.575 30.0873C103.548 27.8866 102.534 25.6252 102.534 23.3032C102.573 22.0653 102.86 20.8478 103.378 19.7227C103.896 18.5976 104.634 17.588 105.549 16.7533C107.875 14.5152 110.674 12.8273 113.739 11.8146C117.356 10.538 121.168 9.90465 125.004 9.94318C128.838 9.90355 132.649 10.528 136.27 11.7887C139.321 12.7882 142.111 14.4578 144.433 16.6752C145.349 17.5038 146.088 18.5088 146.606 19.6298C147.125 20.7509 147.411 21.9649 147.449 23.1993C147.455 24.1413 147.368 25.0816 147.189 26.0065L113.028 26.0585C114.029 27.9426 115.727 29.3604 117.76 30.0092C120.069 30.8795 122.519 31.32 124.987 31.3088C127.032 31.3088 128.687 31.2569 129.953 31.1529C131.324 31.0163 132.676 30.7257 133.982 30.2865C135.562 29.7591 137.066 29.0249 138.454 28.1032L144.329 32.4352C142.735 33.9254 140.065 35.1384 136.322 36.0741C132.615 37.0052 128.809 37.4767 124.987 37.4778C121.159 37.5171 117.359 36.826 113.791 35.4416ZM136.798 20.496C135.558 18.9481 133.869 17.8221 131.963 17.273C129.731 16.5104 127.389 16.1238 125.03 16.1293C122.527 16.0979 120.033 16.4218 117.621 17.0911C116.671 17.3032 115.776 17.711 114.993 18.2883C114.209 18.8656 113.555 19.5999 113.071 20.4442L136.798 20.496Z" fill="white"/>
<path d="M164.356 35.5192C160.97 34.4653 157.844 32.712 155.179 30.3728C152.908 28.2587 151.773 26.0406 151.773 23.7186C151.773 21.3966 152.908 19.1613 155.179 17.0126C157.831 14.6437 160.96 12.871 164.356 11.8141C168.397 10.4762 172.63 9.8091 176.887 9.83884C180.017 9.84604 183.136 10.2064 186.185 10.9132L188.3 11.4069L181.731 16.8133C180.124 16.6141 178.506 16.5245 176.887 16.5449C174.554 16.5654 172.23 16.8355 169.954 17.3506C167.83 17.785 165.804 18.6043 163.975 19.7679C163.269 20.1529 162.675 20.7145 162.251 21.3979C161.827 22.0814 161.588 22.8632 161.557 23.6668C161.565 24.5 161.79 25.3166 162.209 26.0367C162.628 26.7568 163.228 27.3554 163.949 27.7735C165.743 28.9278 167.749 29.714 169.85 30.0868C172.168 30.5637 174.529 30.7989 176.896 30.7886C178.496 30.7827 180.094 30.6697 181.679 30.4506L188.274 35.8657C184.573 36.9236 180.744 37.466 176.896 37.4773C172.637 37.5053 168.403 36.844 164.356 35.5192Z" fill="white"/>
<path d="M218.197 35.7269C216.644 35.1318 215.248 34.1894 214.115 32.9718C213.103 31.9445 212.526 30.5666 212.503 29.1247V0.325195H221.732V24.81C221.686 25.3896 221.764 25.9723 221.962 26.5192C222.159 27.0661 222.471 27.5646 222.876 27.9812C223.644 28.6762 224.649 29.0486 225.684 29.0209L233.483 28.9688V36.6627L223.084 36.7145C221.407 36.7037 219.747 36.3684 218.197 35.7269Z" fill="white"/>
<path d="M244.636 10.722H253.302L253.822 13.5812C256.012 12.4226 258.342 11.5491 260.755 10.982C263.19 10.4018 265.686 10.111 268.19 10.1156C270.935 10.1018 273.667 10.4871 276.301 11.2593C278.743 11.96 281.035 13.1055 283.06 14.6382L278.728 20.8766C276.846 19.606 274.775 18.641 272.592 18.0174C270.497 17.4064 268.327 17.0914 266.145 17.0816C264.039 17.0571 261.945 17.4001 259.957 18.0952C258.248 18.6643 256.716 19.6675 255.512 21.0065C254.434 22.234 253.85 23.8178 253.874 25.4511V36.7144H244.671L244.636 10.722Z" fill="white"/>
<path d="M285.921 10.7227H295.281V16.1811C295.242 17.5275 295.581 18.8579 296.262 20.0205C296.942 21.1832 297.935 22.1314 299.128 22.7572C302.005 24.3437 305.256 25.1249 308.539 25.0185C311.708 25.1327 314.85 24.3968 317.638 22.8871C318.825 22.1971 319.822 21.2232 320.539 20.0527C321.256 18.8821 321.671 17.5516 321.746 16.1811V10.7227H331.105V30.373C331.189 33.677 330.019 36.8902 327.829 39.3663C325.532 41.9024 322.623 43.8085 319.38 44.9028C315.9 46.1376 312.232 46.7618 308.539 46.7482C304.942 46.7385 301.37 46.1535 297.958 45.0153C294.699 44.0189 291.727 42.2539 289.292 39.8689C288.197 38.8025 287.33 37.5243 286.745 36.1122C286.159 34.7001 285.867 33.1838 285.887 31.6553H295.246C295.216 32.5304 295.388 33.4005 295.749 34.1983C296.109 34.9961 296.649 35.7003 297.326 36.256C298.816 37.4678 300.57 38.3134 302.447 38.7252C304.433 39.2053 306.469 39.4497 308.513 39.453C311.489 39.4676 314.437 38.8781 317.179 37.7202C318.43 37.2447 319.519 36.4207 320.316 35.3458C321.113 34.271 321.585 32.9903 321.677 31.6553V29.524C319.691 30.4034 317.617 31.0657 315.489 31.4994C313.181 31.9867 310.829 32.2305 308.47 32.2271C305.002 32.2004 301.561 31.6153 298.279 30.4943C294.949 29.4373 291.918 27.6018 289.44 25.1399C288.266 23.9765 287.342 22.5856 286.725 21.0526C286.108 19.5195 285.811 17.8765 285.852 16.2245L285.921 10.7227Z" fill="white"/>
<path d="M193.681 13.5121C193.75 15.9814 193.82 18.4418 193.898 20.9111L236.811 4.25L229.298 18.9185L189.773 28.1804C189.816 25.7285 189.851 23.2679 189.894 20.8159L175.821 24.1775L193.681 13.5121Z" fill="#F341F3"/>
</svg>
