<svg width="100" height="40" viewBox="0 0 100 40" fill="none" xmlns="http://www.w3.org/2000/svg">
<path d="M14.7968 36.7702C10.8152 35.5309 7.1384 33.4691 4.00483 30.7183C1.3349 28.2323 0 25.6238 0 22.8933C0 20.1627 1.3349 17.5341 4.00483 15.0073C7.12359 12.2216 10.8037 10.1371 14.7968 8.89421C19.5489 7.32095 24.5266 6.53646 29.5323 6.57143C33.2131 6.5799 36.8811 7.0037 40.4668 7.8348L42.9532 8.41537L35.2289 14.773C33.3395 14.5388 31.4361 14.4335 29.5323 14.4574C26.7888 14.4815 24.0557 14.7991 21.3798 15.4048C18.8822 15.9157 16.4993 16.8791 14.3484 18.2475C13.518 18.7002 12.8194 19.3606 12.321 20.1643C11.8226 20.968 11.5415 21.8874 11.5052 22.8323C11.5144 23.8122 11.7786 24.7725 12.2718 25.6193C12.7649 26.466 13.4701 27.1701 14.3178 27.6617C16.4281 29.0191 18.7868 29.9436 21.2574 30.382C23.9831 30.9428 26.7598 31.2194 29.5425 31.2073C31.4243 31.2003 33.3036 31.0674 35.1677 30.8098L42.9226 37.1777C38.571 38.4217 34.0686 39.0595 29.5425 39.0729C24.5352 39.1057 19.5556 38.3281 14.7968 36.7702Z" fill="white"/>
<path d="M49.2815 10.8918C49.363 13.7955 49.4445 16.6889 49.5362 19.5926L100 0L91.1649 17.2494L44.6858 28.1409C44.7367 25.2576 44.7774 22.364 44.8283 19.4807L28.2788 23.4337L49.2815 10.8918Z" fill="#F341F3"/>
</svg>
