<svg width="28" height="24" viewBox="0 0 28 24" fill="none" xmlns="http://www.w3.org/2000/svg">
<path d="M14 22.8093L2.59902 11.4084C1.46064 10.2367 0.75 8.70522 0.75 7C0.75 5.25644 1.46298 3.72941 2.59171 2.59895C3.76336 1.46061 5.29482 0.75 7 0.75C8.74358 0.75 10.2706 1.46299 11.4011 2.59173C12.5394 3.76338 13.25 5.29483 13.25 7H14H14.75C14.75 5.25642 15.463 3.72939 16.5917 2.59893C17.7634 1.4606 19.2948 0.75 21 0.75C22.7436 0.75 24.2706 1.46299 25.4011 2.59173C26.5394 3.76338 27.25 5.29483 27.25 7C27.25 8.74543 26.5355 10.2738 25.4047 11.4047L14 22.8093Z" stroke="white" stroke-width="1.5"/>
</svg>
